<svg xmlns="http://www.w3.org/2000/svg" viewBox="0 0 512 512" id="dollar"><circle cx="266.16" cy="267.36" r="139.48" fill="#ffcd3e"></circle><circle cx="245.84" cy="244.64" r="139.48"></circle><path fill="#fff" d="M245.84,391.77c-81.13,0-147.14-66-147.14-147.13S164.71,97.5,245.84,97.5,393,163.5,393,244.64,327,391.77,245.84,391.77Zm0-279C173.15,112.81,114,171.94,114,244.64s59.14,131.83,131.83,131.83,131.83-59.14,131.83-131.83S318.53,112.81,245.84,112.81Z"></path><path fill="#fff" d="M288.6,283.73A38.1,38.1,0,0,1,273,297.16q-10.28,5.1-24.68,5.62v14H237.24V302.43q-19.31-1.76-31.52-11.77t-12.9-27.21h36.7q.69,8.94,7.72,11.76V252.73a213.08,213.08,0,0,1-23.17-7.46,38.86,38.86,0,0,1-15-11.15q-6.59-7.73-6.58-21.07a32.06,32.06,0,0,1,5.88-19.23,38.33,38.33,0,0,1,16.07-12.64A65.34,65.34,0,0,1,237.24,176V161.78H248.3V176q19.5,1.41,31,11.24t12.73,27H255q-.71-8.07-6.68-10.71v22.3l4.39,1.4a150.06,150.06,0,0,1,21,7.29A38.56,38.56,0,0,1,288,245.8q6,7.47,6,19.58A33.29,33.29,0,0,1,288.6,283.73Zm-51.36-61.9V202.52q-8.07,1.39-8.08,8.95Q229.16,217.8,237.24,221.83ZM255,272.66a8.83,8.83,0,0,0,2.46-6.41q0-6.13-9.14-10v19.84A12.53,12.53,0,0,0,255,272.66Z"></path></svg>