<?xml version="1.0" encoding="utf-8"?>
<!-- Generator: Adobe Illustrator 27.5.0, SVG Export Plug-In . SVG Version: 6.00 Build 0)  -->
<svg version="1.1" id="Layer_1" xmlns="http://www.w3.org/2000/svg" xmlns:xlink="http://www.w3.org/1999/xlink" x="0px" y="0px"
	 viewBox="0 0 4000 4000" style="enable-background:new 0 0 4000 4000;" xml:space="preserve">
<g>
	<g>
		<rect style="fill:#B3FFC7;" width="4000" height="4000"/>
	</g>
	<g>
		<g style="opacity:0.2;">
			<ellipse style="fill:#650000;" cx="2000" cy="3268.845" rx="967.321" ry="205.619"/>
		</g>
		<g>
			<g>
				<g>
					<path style="fill:#FEA726;" d="M1414.821,3068.571c0,0-286.071,114.107-208.928,239.464
						c77.143,125.357,440.357-38.571,564.107-176.786S1414.821,3068.571,1414.821,3068.571z"/>
				</g>
				<g style="opacity:0.3;">
					<path style="fill:#650000;" d="M1757.601,3059.656c-3.175,5.163-7.295,10.668-12.601,16.594
						c-118.267,132.091-455.224,287.64-552.188,191.743c0.684,13.131,4.76,26.521,13.081,40.042
						c77.143,125.357,440.357-38.572,564.107-176.786C1804.097,3093.167,1792.388,3071.335,1757.601,3059.656z"/>
				</g>
				<g>
					<path style="fill:#650000;" d="M1309.807,3372.739c-7.473,0-14.712-0.308-21.738-0.933
						c-46.643-4.18-80.02-22.104-99.209-53.286c-17.095-27.778-20.698-57.153-10.713-87.31
						c33.862-102.251,221.301-178.042,229.265-181.216c1.382-0.552,2.822-0.947,4.294-1.182
						c0.852-0.137,86.355-13.516,175.068-18.74c170.459-10.005,206.216,18.232,218.262,40.366
						c11.604,21.318,4.829,46.27-20.137,74.15C1688.394,3252.378,1457.922,3372.739,1309.807,3372.739z M1420.154,3087.983
						c-51.016,20.752-181.125,86.553-204.043,155.825c-6.177,18.672-3.948,36.255,6.816,53.745
						c12.209,19.844,35.327,31.421,68.708,34.409c6.094,0.547,12.419,0.811,18.926,0.811
						c135.635,0.01,355.439-115.352,444.539-214.863c12.988-14.507,16.794-24.692,14.805-28.345
						c-1.628-2.998-20.552-28.989-180.781-19.561C1510.222,3074.648,1433.977,3085.884,1420.154,3087.983z"/>
				</g>
			</g>
			<g>
				<g>
					<path style="fill:#FEA726;" d="M2585.179,3068.571c0,0,286.071,114.107,208.928,239.464
						c-77.143,125.357-440.357-38.571-564.107-176.786S2585.179,3068.571,2585.179,3068.571z"/>
				</g>
				<g style="opacity:0.3;">
					<path style="fill:#650000;" d="M2242.399,3059.656c3.175,5.163,7.295,10.668,12.601,16.594
						c118.267,132.091,455.224,287.64,552.188,191.743c-0.684,13.131-4.76,26.521-13.081,40.042
						c-77.143,125.357-440.357-38.572-564.107-176.786C2195.903,3093.167,2207.612,3071.335,2242.399,3059.656z"/>
				</g>
				<g>
					<path style="fill:#650000;" d="M2690.193,3372.739c-148.115,0-378.579-120.356-475.093-228.149
						c-24.966-27.881-31.741-52.832-20.137-74.15c12.048-22.134,47.771-50.386,218.262-40.366
						c88.713,5.225,174.216,18.604,175.068,18.74c1.472,0.234,2.913,0.63,4.294,1.182c7.964,3.174,195.403,78.965,229.265,181.216
						c9.985,30.156,6.382,59.531-10.713,87.31c-19.189,31.182-52.566,49.106-99.209,53.286
						C2704.915,3372.432,2697.656,3372.739,2690.193,3372.739z M2347.1,3067.959c-101.833,0-115.623,19.067-117.004,21.606
						c-1.99,3.652,1.816,13.838,14.805,28.345c93.374,104.282,330.31,226.016,463.464,214.053
						c33.381-2.988,56.499-14.565,68.708-34.409c10.764-17.49,12.993-35.073,6.816-53.745
						c-22.917-69.272-153.027-135.073-204.041-155.825c-13.85-2.104-90.315-13.364-169.236-17.993
						C2386.348,3068.569,2365.305,3067.959,2347.1,3067.959z"/>
				</g>
			</g>
			<g>
				<g>
					<path style="fill:#FFFFFF;" d="M2866.45,2287.5c0,0-5.3,95.05,22.4,172.65c9.25,25.85,16.95,52.2,21.7,79.25
						c29.25,165.9,65.2,646.15-491.45,669.85c-65.2,2.8-130.5-1.95-194.9-12.35c-50.65-8.15-134.9-19.05-224.2-19.05
						c-89.3,0-173.55,10.9-224.2,19.05c-64.4,10.4-129.7,15.15-194.9,12.35c-556.65-23.7-520.7-503.95-491.45-669.85
						c4.75-27.05,12.45-53.4,21.7-79.25c8.6-24.05,14-49.75,17.4-73.75c7.55-53.6,5-98.9,5-98.9S941.8,2218,920.1,1936.95
						c-1.65-21.2-2.35-43.6-1.9-67.3c6.4-334.8,278.45-433.95,282.8-435.55h0.05c0,0,0-0.05-0.05-0.1
						c-29-79.55-41.8-155.9-46-221.95c-1.4-22.05-1.85-42.95-1.65-62.45c1.05-101.65,80.9-184.35,182.4-189.35
						c164.7-8.1,279.95,64.05,279.95,64.05c171.45-90,384.3-87.85,384.3-87.85s212.85-2.15,384.3,87.85
						c0,0,115.25-72.15,279.95-64.05c101.5,5,181.35,87.7,182.4,189.35c0.85,77.95-8.95,178.4-47.7,284.5
						c0,0,276.4,98.05,282.85,435.55C3088.2,2207.15,2866.45,2287.5,2866.45,2287.5z"/>
				</g>
				<g>
					<path style="fill:#FEA726;" d="M2846.65,1149.6c-1.05-101.65-80.9-184.35-182.4-189.35c-164.7-8.1-279.95,64.05-279.95,64.05
						c-171.45-90-384.3-87.85-384.3-87.85s-212.85-2.15-384.3,87.85c0,0-115.25-72.15-279.95-64.05
						c-101.5,5-181.35,87.7-182.4,189.35c-0.85,77.95,8.95,178.35,47.65,284.4c0.05,0.05,0.05,0.1,0.05,0.1
						s115.899-72.872,259.55,28.95c236.543,167.664,396.55,36.491,539.4,36.491s303.571,115.992,539.4-36.491
						c147.862-95.605,259.55-28.95,259.55-28.95s0-0.05,0.05-0.1C2837.7,1327.95,2847.5,1227.55,2846.65,1149.6z"/>
				</g>
				<g>
					
						<ellipse transform="matrix(0.5 -0.866 0.866 0.5 -278.3061 2155.9121)" style="fill:#FFFFFF;" cx="1727.922" cy="1318.976" rx="42.858" ry="62.058"/>
				</g>
				<g>
					
						<ellipse transform="matrix(0.866 -0.5 0.5 0.866 -355.0873 1312.7485)" style="fill:#FFFFFF;" cx="2272.078" cy="1318.976" rx="62.058" ry="42.858"/>
				</g>
				<g style="opacity:0.3;">
					<path style="fill:#650000;" d="M2419.1,3089.25c-65.2,2.8-130.5-1.95-194.9-12.35c-50.65-8.15-134.9-19.05-224.2-19.05
						c-89.3,0-173.55,10.9-224.2,19.05c-64.4,10.4-129.7,15.15-194.9,12.35c-388.168-16.527-488.144-255.045-503.203-454.179
						c-14.588,206.729,31.862,554.111,503.203,574.179c65.2,2.8,130.5-1.95,194.9-12.35c50.65-8.15,134.9-19.05,224.2-19.05
						c89.3,0,173.55,10.9,224.2,19.05c64.4,10.4,129.7,15.15,194.9,12.35c471.342-20.068,517.791-367.45,503.203-574.179
						C2907.244,2834.205,2807.268,3072.723,2419.1,3089.25z"/>
				</g>
				<g style="opacity:0.3;">
					<path style="fill:#650000;" d="M1317.3,2377.6c0,0-83.75,22.55-188.75,8.8c7.55-53.6,5-98.9,5-98.9S941.8,2218,920.1,1936.95
						c0,0,62.4,144.85,305.1,291.1C1225.2,2228.05,1253.55,2315,1317.3,2377.6z"/>
				</g>
				<g style="opacity:0.3;">
					<path style="fill:#650000;" d="M2682.7,2377.6c0,0,83.75,22.55,188.75,8.8c-7.55-53.6-5-98.9-5-98.9s191.75-69.5,213.45-350.55
						c0,0-62.4,144.85-305.1,291.1C2774.8,2228.05,2746.45,2315,2682.7,2377.6z"/>
				</g>
				<g style="opacity:0.3;">
					<g>
						<path style="fill:#650000;" d="M1128.018,2126.984c-0.815-10.032-0.494-19.777,0.521-29.575
							c0.931-9.801,2.685-19.486,4.896-29.125c4.524-19.237,11.405-38.096,20.598-56.073c18.158-35.994,46.644-68.362,82.308-90.593
							c17.672-11.279,37.106-19.846,57.106-25.4c9.896-3.267,20.15-4.747,30.234-6.71c5.087-0.61,10.178-1.139,15.261-1.583
							c2.541-0.209,5.073-0.529,7.608-0.636l7.598-0.154c40.512-0.487,79.803,7.654,114.94,24.253
							c3.577,1.691,5.107,5.961,3.417,9.539c-1.188,2.515-3.651,4.017-6.251,4.102l-0.054,0.001
							c-37.752,1.147-73.604,2.66-107.371,9.325c-8.539,1.074-16.602,3.95-24.861,5.553c-7.961,2.688-16.087,4.68-23.726,7.852
							c-7.826,2.714-15.201,6.323-22.693,9.609c-3.601,1.942-7.161,3.94-10.82,5.75c-3.654,1.821-6.998,4.188-10.526,6.232
							c-27.648,17.3-51.917,40.251-73.347,67.366c-21.336,27.175-40.04,58.08-57.366,91.526l-0.116,0.223
							c-0.991,1.914-3.347,2.661-5.261,1.67C1128.877,2129.493,1128.127,2128.276,1128.018,2126.984z"/>
					</g>
				</g>
				<g style="opacity:0.3;">
					<g>
						<path style="fill:#650000;" d="M2864.51,2128.24c-17.327-33.446-36.03-64.351-57.367-91.526
							c-21.431-27.114-45.699-50.066-73.347-67.366c-3.528-2.043-6.873-4.41-10.526-6.232c-3.658-1.809-7.218-3.807-10.819-5.75
							c-7.493-3.286-14.867-6.896-22.693-9.609c-7.639-3.171-15.765-5.164-23.726-7.852c-8.26-1.603-16.323-4.479-24.862-5.553
							c-33.767-6.665-69.619-8.177-107.371-9.325l-0.045-0.002c-3.955-0.12-7.064-3.423-6.943-7.378
							c0.084-2.78,1.75-5.144,4.1-6.261c35.137-16.599,74.429-24.74,114.94-24.253l7.598,0.154c2.535,0.107,5.068,0.427,7.609,0.636
							c5.083,0.444,10.175,0.973,15.261,1.583c10.084,1.963,20.338,3.444,30.234,6.71c19.999,5.554,39.432,14.121,57.104,25.4
							c35.664,22.231,64.15,54.6,82.308,90.593c9.192,17.977,16.074,36.836,20.598,56.073c2.211,9.639,3.965,19.324,4.895,29.125
							c1.016,9.799,1.338,19.543,0.521,29.575c-0.175,2.148-2.058,3.749-4.207,3.574c-1.388-0.112-2.546-0.939-3.146-2.089
							L2864.51,2128.24z"/>
					</g>
				</g>
				<g style="opacity:0.3;">
					<path style="fill:#650000;" d="M1460.55,1463c-131.55-89.4-259.5-28.9-259.5-28.9s0-0.05-0.05-0.1
						c-29-79.55-41.8-155.9-46-221.95c66.05,108.85,139.3,148.15,139.3,148.15C1432.45,1360.7,1459.75,1459.9,1460.55,1463z"/>
				</g>
				<g style="opacity:0.3;">
					<path style="fill:#650000;" d="M2539.45,1463c131.55-89.4,259.5-28.9,259.5-28.9s0-0.05,0.05-0.1
						c29-79.55,41.8-155.9,46-221.95c-66.05,108.85-139.3,148.15-139.3,148.15C2567.55,1360.7,2540.25,1459.9,2539.45,1463z"/>
				</g>
				<g style="opacity:0.3;">
					<path style="fill:#650000;" d="M2215.971,1545.803c0,0,15.625,57.857-65.536,76.339
						c-81.161,18.482-104.464-73.777-104.464-73.777l-45.977-2.562l-45.977,2.562c0,0-23.304,92.26-104.464,73.777
						c-81.161-18.482-65.536-76.339-65.536-76.339s-87.946,46.607-26.071,149.063c0,0,14.542,230.491,242.048,230.491
						s242.048-230.491,242.048-230.491C2303.917,1592.411,2215.971,1545.803,2215.971,1545.803z"/>
				</g>
				<g style="opacity:0.7;">
					<path style="fill:#FFFFFF;" d="M1335.75,1005.25c164.7-8.1,241.928,45.286,241.928,45.286
						c100.597-30.743,210.697-48.191,293.253-57.86c86.627-10.145,174.081-10.444,260.722-0.423
						c81.563,9.434,189.687,26.783,290.668,58.283c0,0,77.229-53.386,241.929-45.286c98.123,4.834,175.998,82.286,182.022,179.272
						c0.37-12.053,0.5-23.743,0.378-34.922c-1.05-101.65-80.9-184.35-182.4-189.35c-164.7-8.1-279.95,64.05-279.95,64.05
						c-171.45-90-384.3-87.85-384.3-87.85s-212.85-2.15-384.3,87.85c0,0-115.25-72.15-279.95-64.05
						c-101.5,5-181.35,87.7-182.4,189.35c-0.122,11.179,0.008,22.869,0.378,34.922
						C1159.752,1087.536,1237.627,1010.084,1335.75,1005.25z"/>
				</g>
				<g>
					<g>
						<path style="fill:#650000;" d="M1191.566,1416.51c1.963-1.1,3.333-1.771,4.833-2.54c1.511-0.792,2.955-1.459,4.399-2.122
							c2.894-1.39,5.816-2.649,8.731-3.738c5.817-2.423,11.718-4.255,17.64-6.158c11.893-3.401,23.973-6.064,36.185-7.628
							c24.395-3.11,49.248-3.153,73.372,1.034c6.095,0.543,11.976,2.394,17.928,3.651l8.882,2.089c2.964,0.665,5.801,1.81,8.7,2.695
							l17.239,5.697c5.561,2.363,11.039,4.905,16.469,7.487c11.096,4.673,20.801,12.052,30.725,18.497
							c2.481,1.627,4.767,3.561,7.008,5.546c2.279,1.919,4.496,3.923,6.68,5.952c4.409,3.987,8.658,8.135,12.682,12.468
							c1.668,1.797,1.564,4.607-0.233,6.276c-1.17,1.086-2.769,1.421-4.203,1.027l-0.396-0.111
							c-5.695-1.582-11.166-3.352-16.477-5.282c-5.443-1.683-10.333-4.281-15.807-5.642c-5.283-1.726-10.579-3.315-15.73-5.114
							c-2.596-0.85-5.109-1.886-7.724-2.629l-7.864-2.12c-20.511-6.787-41.616-10.415-62.577-12.458l-15.767-0.958
							c-5.264,0.068-10.514,0.278-15.753,0.243c-10.474,0.383-20.905,1.388-31.228,2.97c-10.347,1.462-20.501,3.87-30.568,6.415
							c-4.911,1.576-9.971,2.848-14.748,4.602c-2.457,0.797-4.802,1.686-7.131,2.556c-1.183,0.43-2.363,0.861-3.41,1.316
							l-2.849,1.176l-1.638,0.675c-10.193,4.204-21.863-0.652-26.066-10.845C1178.977,1432.09,1182.864,1421.376,1191.566,1416.51z"
							/>
					</g>
					<g>
						<path style="fill:#650000;" d="M1143.546,2270.165c0.142,0.107,1.151,0.682,1.868,1.06l2.433,1.331l5.17,2.695
							c3.534,1.788,7.171,3.553,10.896,5.244c7.437,3.407,15.146,6.57,23.052,9.584c7.96,2.754,16.035,5.768,24.385,8.237
							l25.614,8.069l0.069,0.021c1.985,0.626,3.088,2.743,2.462,4.728c-0.389,1.235-1.378,2.135-2.531,2.483
							c-4.506,1.327-9.081,2.438-13.7,3.383c-4.615,0.778-9.286,1.588-13.973,1.963c-9.385,0.925-18.871,0.902-28.371,0.275
							c-9.507-0.645-19.023-2.042-28.481-4.219c-4.741-1.044-9.436-2.421-14.141-3.983c-2.349-0.808-4.702-1.632-7.065-2.628
							c-1.183-0.499-2.363-0.959-3.586-1.548c-1.279-0.604-2.247-1.051-4.049-2.023l-1.688-0.909
							c-9.775-5.269-13.429-17.465-8.16-27.24s17.465-13.428,27.239-8.159C1141.86,2268.997,1142.773,2269.591,1143.546,2270.165z"
							/>
					</g>
					<g>
						<path style="fill:#650000;" d="M2789.423,1451.704l-2.849-1.176c-1.046-0.455-2.227-0.886-3.409-1.316
							c-2.329-0.87-4.675-1.759-7.131-2.556c-4.777-1.754-9.838-3.026-14.749-4.602c-10.066-2.545-20.221-4.952-30.568-6.415
							c-10.323-1.582-20.754-2.587-31.228-2.97c-5.239,0.035-10.488-0.175-15.752-0.243l-15.767,0.958
							c-20.962,2.043-42.067,5.671-62.578,12.458l-7.864,2.12c-2.615,0.743-5.128,1.78-7.723,2.629
							c-5.151,1.798-10.447,3.387-15.73,5.114c-5.474,1.361-10.364,3.959-15.807,5.642c-5.311,1.93-10.781,3.7-16.477,5.282
							l-0.388,0.109c-2.363,0.657-4.811-0.726-5.468-3.09c-0.427-1.538,0.016-3.118,1.024-4.21
							c4.025-4.333,8.274-8.481,12.683-12.468c2.184-2.029,4.401-4.033,6.68-5.952c2.241-1.985,4.526-3.918,7.008-5.546
							c9.924-6.445,19.63-13.824,30.725-18.497c5.43-2.582,10.908-5.123,16.47-7.487l17.238-5.697c2.899-0.885,5.736-2.03,8.7-2.695
							l8.883-2.089c5.952-1.257,11.833-3.108,17.928-3.651c24.124-4.187,48.977-4.144,73.372-1.034
							c12.212,1.564,24.292,4.227,36.185,7.628c5.922,1.903,11.823,3.735,17.64,6.158c2.914,1.089,5.836,2.347,8.73,3.738
							c1.444,0.663,2.888,1.329,4.399,2.122c1.5,0.769,2.87,1.44,4.833,2.54c9.618,5.392,13.043,17.559,7.653,27.175
							c-4.996,8.912-15.811,12.509-25.023,8.698L2789.423,1451.704z"/>
					</g>
					<g>
						<path style="fill:#650000;" d="M2876.403,2304.835c-1.803,0.972-2.77,1.418-4.049,2.023c-1.223,0.588-2.402,1.049-3.586,1.548
							c-2.363,0.996-4.716,1.82-7.065,2.628c-4.705,1.563-9.399,2.939-14.141,3.983c-9.458,2.177-18.973,3.574-28.48,4.219
							c-9.501,0.627-18.987,0.651-28.372-0.275c-4.688-0.375-9.359-1.185-13.973-1.963c-4.619-0.945-9.193-2.056-13.7-3.383
							c-1.997-0.587-3.14-2.682-2.552-4.679c0.366-1.243,1.315-2.155,2.461-2.524l0.092-0.028l25.614-8.069
							c8.35-2.469,16.425-5.483,24.385-8.237c7.906-3.014,15.616-6.177,23.053-9.584c3.724-1.691,7.361-3.456,10.896-5.244
							l5.17-2.695l2.433-1.331c0.717-0.377,1.726-0.952,1.869-1.06c8.87-6.681,21.477-4.905,28.157,3.965
							c6.681,8.871,4.906,21.477-3.965,28.158c-0.791,0.596-1.611,1.124-2.455,1.586L2876.403,2304.835z"/>
					</g>
					<g>
						<path style="fill:#650000;" d="M2724.26,1433.706c-8.84,0-16.924-5.903-19.312-14.849
							c-6.389-23.945-17.561-50.664-17.673-50.933c-4.275-10.186,0.515-21.904,10.698-26.182
							c10.181-4.292,21.902,0.508,26.179,10.688c0.5,1.191,12.334,29.463,19.443,56.113c2.847,10.674-3.496,21.631-14.167,24.482
							C2727.703,1433.486,2725.967,1433.706,2724.26,1433.706z"/>
					</g>
					<g>
						<path style="fill:#650000;" d="M1275.74,1433.706c-1.707,0-3.44-0.22-5.168-0.679c-10.671-2.852-17.014-13.809-14.167-24.482
							c7.109-26.65,18.943-54.922,19.443-56.113c4.275-10.176,15.996-14.971,26.179-10.688
							c10.183,4.277,14.973,15.996,10.698,26.182c-0.112,0.269-11.284,26.987-17.673,50.933
							C1292.666,1427.803,1284.578,1433.706,1275.74,1433.706z"/>
					</g>
					<g>
						<path style="fill:#650000;" d="M1626.266,1041.276c-3.133,1.753-6.694,3.313-10.202,4.745
							c-3.544,1.427-7.154,2.764-10.842,3.973c-3.631,1.293-7.427,2.36-11.233,3.383c-3.845,0.978-7.829,1.754-12.023,2.325
							l-0.487,0.067c-4.167,0.568-8.005-2.351-8.573-6.517c-0.184-1.353,0.012-2.7,0.486-3.883c1.752-4.333,3.95-8.164,6.342-11.713
							c2.432-3.502,4.982-6.81,7.723-9.851c2.686-3.124,5.505-6.035,8.421-8.812c2.953-2.767,5.88-5.369,9.284-7.697l0.026-0.018
							c9.126-6.243,21.585-3.906,27.828,5.22c6.243,9.126,3.906,21.586-5.22,27.828
							C1627.307,1040.662,1626.774,1040.99,1626.266,1041.276z"/>
					</g>
					<g>
						<path style="fill:#650000;" d="M2394.838,1007.296c3.403,2.328,6.331,4.929,9.285,7.697c2.915,2.777,5.735,5.689,8.42,8.812
							c2.742,3.041,5.292,6.349,7.723,9.851c2.391,3.549,4.59,7.379,6.343,11.713c1.576,3.899-0.306,8.337-4.205,9.915
							c-1.266,0.511-2.588,0.659-3.85,0.491l-0.519-0.072c-4.194-0.571-8.179-1.348-12.023-2.325
							c-3.806-1.023-7.603-2.09-11.234-3.383c-3.688-1.21-7.299-2.546-10.841-3.973c-3.508-1.432-7.069-2.992-10.203-4.745
							c-9.651-5.398-13.098-17.596-7.7-27.246c5.398-9.651,17.596-13.098,27.246-7.7c0.519,0.289,1.021,0.599,1.503,0.928
							L2394.838,1007.296z"/>
					</g>
					<g>
						<g>
							<path style="fill:#650000;" d="M2000,1616.518c89.286,109.018,196.083,52.098,196.083,52.098s26.06,235.313-196.083,239.598
								c-222.143-4.286-196.083-239.598-196.083-239.598S1910.714,1725.536,2000,1616.518z"/>
						</g>
						<g>
							<path style="fill:#650000;" d="M2074.643,1517.143c-10.178-34.286-74.643-35.625-74.643-35.625s-64.464,1.339-74.643,35.625
								c-10.179,34.286,42.679,62.679,74.643,62.679S2084.822,1551.428,2074.643,1517.143z"/>
						</g>
						<g>
							<path style="fill:#F76D9B;" d="M1856.825,1851.536c0,0,128.075-168.107,286.339,0
								C2143.164,1851.536,1998.293,1978.071,1856.825,1851.536z"/>
						</g>
						<g>
							<g>
								<path style="fill:#FFFFFF;" d="M2000,1616.518c27.891,42.147,90.043,63.981,90.043,63.981v3.549
									c0,48.686-39.024,88.602-87.706,89.154c-0.772,0.009-1.552,0.013-2.337,0.013s-1.565-0.004-2.337-0.013
									c-48.682-0.552-87.706-40.468-87.706-89.154v-3.549C1909.957,1680.499,1972.109,1658.665,2000,1616.518z"/>
							</g>
							<g>
								<path style="fill:#650000;" d="M2000,1788.213l-2.432-0.01c-56.614-0.64-102.612-47.363-102.612-104.155v-3.55
									c0-6.367,4.021-12.041,10.029-14.15c0.562-0.2,57.798-20.771,82.505-58.105c2.778-4.199,7.476-6.724,12.51-6.724
									s9.731,2.524,12.51,6.724c24.707,37.334,81.943,57.905,82.52,58.11c5.994,2.119,10.015,7.788,10.015,14.146v3.55
									c0,56.792-45.999,103.516-102.537,104.155L2000,1788.213z M1925.242,1690.562c3.284,37.432,34.587,67.212,72.593,67.642
									l2.166,0.01l2.241-0.01c37.935-0.43,69.233-30.21,72.517-67.642c-16.816-7.183-50.53-23.77-74.758-49.946
									C1975.771,1666.792,1942.058,1683.379,1925.242,1690.562z"/>
							</g>
							<g>
								<path style="fill:#650000;" d="M2015,1616.517c1.235,8.684,1.493,17.367,1.509,26.05c0.032,8.683-0.406,17.366-1.12,26.049
									c-0.685,8.683-1.77,17.367-3.415,26.05c-1.788,8.683-3.792,17.366-7.332,26.049c-1.046,2.565-3.972,3.795-6.536,2.75
									c-1.296-0.527-2.257-1.55-2.75-2.75c-3.539-8.683-5.544-17.366-7.332-26.049c-1.645-8.683-2.73-17.367-3.415-26.05
									c-0.714-8.683-1.152-17.366-1.12-26.049c0.016-8.683,0.274-17.366,1.509-26.05c1.179-8.284,8.85-14.044,17.134-12.865
									C2008.961,1604.624,2014.071,1610.02,2015,1616.517z"/>
							</g>
						</g>
						<g>
							<path style="fill:#650000;" d="M2000,1925.713c-0.112,0-0.225,0-0.337-0.005c-68.22-1.313-121.594-23.369-158.638-65.557
								c-66.658-75.903-55.032-188.696-54.502-193.462c0.637-5.767,4.094-10.84,9.229-13.55c5.127-2.71,11.272-2.7,16.394,0.034
								c3.804,1.987,95.601,48.364,174.314-47.744c3.325-4.058,8.293-6.411,13.54-6.411s10.215,2.354,13.54,6.411
								c78.711,96.113,170.505,49.736,174.375,47.71c5.127-2.671,11.267-2.661,16.365,0.049c5.1,2.72,8.562,7.759,9.197,13.501
								c0.53,4.766,12.156,117.559-54.502,193.462c-37.043,42.188-90.417,64.243-158.638,65.557
								C2000.225,1925.713,2000.112,1925.713,2000,1925.713z M1820.537,1693.403c0.342,33.867,6.814,98.262,46.921,143.809
								c30.222,34.321,74.814,52.319,132.542,53.496c57.727-1.177,102.319-19.175,132.542-53.496
								c40.105-45.542,46.577-109.932,46.921-143.813c-37.737,10.845-112.219,19.209-179.463-50.537
								C1932.756,1712.612,1858.274,1704.229,1820.537,1693.403z"/>
						</g>
						<g>
							<path style="fill:#650000;" d="M2020,1568.303v48.214l-3.032-10.587l1.086,1.449c0.412,0.575,0.899,1.19,1.409,1.819
								c0.983,1.244,1.971,2.49,3.08,3.727c2.073,2.517,4.447,4.873,6.66,7.338c4.667,4.751,9.569,9.299,14.766,13.441
								c10.314,8.394,21.638,15.309,33.557,20.624c12.03,5.099,24.69,8.228,37.656,10.12l9.857,0.57
								c1.646,0.083,3.287,0.262,4.941,0.278l4.987-0.267l9.999-0.438l9.833-1.423l4.938-0.695c1.643-0.24,3.118-0.814,4.69-1.196
								l9.333-2.517l8.63-3.625l2.184-0.881l1.932-1.185l3.899-2.338c10.332-6.239,18.666-14.935,23.818-25.709
								c5.219-10.773,6.904-23.276,6.708-36.134c-0.256-12.987-2.694-26.256-7.833-40.603l-0.078-0.219
								c-0.742-2.073,0.336-4.355,2.41-5.098c1.178-0.422,2.441-0.245,3.434,0.359c14.42,8.877,24.292,24.481,28.738,41.355
								c4.509,17.01,3.074,35.769-3.506,52.908c-6.489,17.231-18.761,32.361-33.534,42.93l-5.649,3.824l-2.844,1.888l-2.982,1.487
								l-12.029,5.844c-4.097,1.478-8.231,2.819-12.372,4.202c-2.072,0.635-4.147,1.472-6.226,1.924l-6.249,1.306
								c-4.172,0.846-8.353,1.752-12.548,2.504l-12.673,1.124l-6.35,0.515c-2.128,0.059-4.274-0.054-6.411-0.079l-12.853-0.339
								c-17.142-1.614-34.141-5.61-50.121-12.2c-15.952-6.643-30.564-15.931-43.689-26.711c-6.579-5.393-12.609-11.378-18.4-17.583
								c-2.818-3.198-5.601-6.398-8.204-9.846c-1.332-1.663-2.62-3.444-3.895-5.242c-0.637-0.879-1.278-1.783-1.927-2.778
								l-2.108-3.25h-0.001c-2.061-3.209-3.041-6.803-3.035-10.353l0.002-0.237v-48.214c0-11.045,8.954-20,20-20
								S2020,1557.258,2020,1568.303z"/>
						</g>
						<g>
							<path style="fill:#650000;" d="M2020,1568.303v48.214v0.253c0,3.815-1.11,7.352-3.033,10.337h-0.001l-2.108,3.25
								c-0.649,0.995-1.29,1.899-1.927,2.778c-1.276,1.798-2.563,3.579-3.895,5.242c-2.603,3.448-5.386,6.648-8.204,9.846
								c-5.79,6.205-11.821,12.19-18.4,17.583c-13.125,10.78-27.736,20.068-43.689,26.711c-15.98,6.589-32.979,10.586-50.121,12.2
								l-12.852,0.339c-2.138,0.026-4.283,0.138-6.411,0.079l-6.351-0.515l-12.673-1.124c-4.196-0.752-8.376-1.658-12.548-2.504
								l-6.248-1.306c-2.079-0.452-4.154-1.289-6.226-1.924c-4.141-1.383-8.276-2.723-12.372-4.202l-12.029-5.844l-2.982-1.487
								l-2.844-1.888l-5.649-3.824c-14.773-10.569-27.045-25.698-33.534-42.93c-6.579-17.139-8.015-35.897-3.506-52.908
								c4.447-16.874,14.318-32.478,28.738-41.355c1.875-1.155,4.331-0.57,5.485,1.305c0.656,1.066,0.75,2.319,0.365,3.416
								l-0.085,0.237c-5.138,14.347-7.576,27.616-7.833,40.603c-0.197,12.858,1.49,25.361,6.708,36.134
								c5.152,10.774,13.486,19.47,23.818,25.709l3.899,2.338l1.933,1.185l2.183,0.881l8.631,3.625l9.333,2.517
								c1.573,0.382,3.047,0.956,4.69,1.196l4.938,0.695l9.832,1.423l10,0.438l4.986,0.267c1.654-0.016,3.296-0.195,4.942-0.278
								l9.856-0.57c12.967-1.892,25.627-5.021,37.656-10.12c11.92-5.315,23.244-12.23,33.558-20.624
								c5.197-4.142,10.098-8.69,14.766-13.441c2.213-2.465,4.587-4.821,6.66-7.338c1.108-1.237,2.097-2.483,3.08-3.727
								c0.51-0.629,0.997-1.244,1.409-1.819l1.086-1.449l-3.032,10.587v-48.214c0-11.045,8.954-20,20-20
								S2020,1557.258,2020,1568.303z"/>
						</g>
						<g>
							<path style="fill:#650000;" d="M1543.644,1525.483c-1.729-12.665-0.065-24.604,3.663-36.394
								c3.777-11.704,9.924-22.949,18.251-32.902c8.227-10.089,19.249-18.074,30.898-24.712l9.122-4.373
								c3.038-1.509,6.297-2.289,9.464-3.434c6.36-2.426,12.896-3.423,19.44-4.586c25.441-4.231,53.756,0.054,77.382,13.142
								c11.88,6.365,22.217,14.973,30.93,24.591c2.191,2.399,4.246,4.901,6.262,7.427c1.904,2.618,3.809,5.211,5.577,7.913
								c1.758,2.71,3.466,5.447,4.973,8.372c0.788,1.403,1.528,2.946,2.269,4.448c0.369,0.728,0.741,1.528,1.103,2.385l1.243,2.897
								c5.085,10.714,0.521,23.523-10.194,28.607c-10.715,5.085-23.522,0.521-28.608-10.193c-0.038,0.1-0.341-0.305-0.629-0.668
								l-0.876-1.122c-0.63-0.804-1.212-1.6-1.929-2.422l-4.176-4.878c-2.881-3.219-6.027-6.178-9.141-9.063
								c-6.373-5.637-13.243-10.332-20.457-13.833c-7.279-3.348-14.672-6.27-22.712-7.4c-1.936-0.54-4.003-0.596-6.049-0.771
								c-2.048-0.162-4.072-0.475-6.149-0.58l-6.342,0.14c-2.129-0.032-4.261-0.073-6.25,0.31
								c-4.063,0.504-8.218,0.803-12.036,1.959c-1.92,0.544-4.022,0.698-5.845,1.498c-1.858,0.72-3.724,1.433-5.63,2.092
								c-7.36,3.171-14.484,7.227-21.146,12.699c-6.74,5.338-13.502,11.466-20.264,18.467c-6.702,6.951-13.644,14.884-20.863,22.986
								l-0.587,0.659c-2.262,2.539-6.154,2.764-8.693,0.502C1544.51,1528.234,1543.836,1526.884,1543.644,1525.483z"/>
						</g>
						<g>
							<path style="fill:#650000;" d="M2445.072,1528.087c-7.219-8.102-14.16-16.035-20.863-22.986
								c-6.763-7.001-13.524-13.129-20.265-18.467c-6.661-5.472-13.785-9.528-21.145-12.699c-1.907-0.659-3.773-1.372-5.631-2.092
								c-1.823-0.8-3.926-0.953-5.845-1.498c-3.818-1.156-7.972-1.455-12.036-1.959c-1.989-0.383-4.121-0.342-6.25-0.31l-6.342-0.14
								c-2.076,0.105-4.1,0.417-6.149,0.58c-2.046,0.176-4.113,0.232-6.049,0.771c-8.04,1.13-15.432,4.052-22.712,7.4
								c-7.212,3.501-14.083,8.196-20.457,13.833c-3.113,2.885-6.259,5.844-9.141,9.063l-4.176,4.878
								c-0.718,0.822-1.298,1.617-1.929,2.422l-0.876,1.122c-0.287,0.363-0.59,0.768-0.629,0.668
								c-5.084,10.714-17.893,15.278-28.607,10.193c-10.715-5.084-15.278-17.893-10.194-28.607l1.243-2.897
								c0.363-0.857,0.735-1.658,1.104-2.385c0.741-1.503,1.482-3.046,2.269-4.448c1.506-2.925,3.214-5.662,4.973-8.372
								c1.769-2.701,3.674-5.294,5.577-7.913c2.015-2.526,4.071-5.028,6.262-7.427c8.712-9.618,19.05-18.226,30.93-24.591
								c23.625-13.088,51.941-17.373,77.383-13.142c6.544,1.163,13.08,2.161,19.44,4.586c3.167,1.145,6.426,1.925,9.464,3.434
								l9.121,4.373c11.65,6.638,22.672,14.623,30.9,24.712c8.326,9.952,14.474,21.198,18.251,32.902
								c3.728,11.79,5.392,23.729,3.662,36.394c-0.46,3.369-3.563,5.728-6.932,5.267c-1.51-0.205-2.817-0.942-3.759-1.997
								L2445.072,1528.087z"/>
						</g>
					</g>
				</g>
				<g>
					<g>
						<path style="fill:#F76D9B;" d="M1294.286,1360.179c0,0,55.714-138.75,193.929-244.822c0,0-55.627-39.927-132.818-42.869
							c-52.562-2.004-97.087,38.747-98.94,91.315C1254.712,1213.315,1261.109,1282.674,1294.286,1360.179z"/>
					</g>
					<g style="opacity:0.3;">
						<path style="fill:#650000;" d="M1295.009,1197.682c1.715-48.684,42.951-86.424,91.629-84.568
							c32.346,1.233,60.578,9.48,81.824,18.139c6.406-5.358,12.95-10.675,19.752-15.895c0,0-55.627-39.927-132.818-42.869
							c-52.562-2.004-97.087,38.748-98.94,91.315c-1.744,49.512,4.651,118.871,37.829,196.375c0,0,5.306-13.188,16.654-34.495
							C1296.788,1275.853,1293.81,1231.702,1295.009,1197.682z"/>
					</g>
					<g>
						<path style="fill:#650000;" d="M1294.287,1380.171c-7.996,0-15.237-4.756-18.389-12.119
							c-35.625-83.228-41.106-157.393-39.429-204.951c1.077-30.566,14.038-58.896,36.499-79.766
							c22.668-21.064,52.168-32.031,83.191-30.83c82.256,3.13,141.248,44.829,143.718,46.602c5.142,3.691,8.232,9.6,8.335,15.928
							c0.1,6.333-2.8,12.334-7.822,16.187c-131.897,101.23-187.012,235.093-187.554,236.431c-3.025,7.49-10.264,12.437-18.342,12.52
							C1294.426,1380.171,1294.355,1380.171,1294.287,1380.171z M1351.66,1092.417c-19.192,0-37.366,7.119-51.465,20.22
							c-14.617,13.579-23.052,32.002-23.75,51.87c-1.24,35.181,1.821,86.328,20.361,145.054
							c25.479-46.567,75.244-123.101,156.091-191.426c-21.726-10.684-56.785-24.077-98.264-25.659
							C1353.643,1092.437,1352.649,1092.417,1351.66,1092.417z"/>
					</g>
				</g>
				<g>
					<g>
						<path style="fill:#F76D9B;" d="M2705.714,1360.179c0,0-55.714-138.75-193.929-244.822c0,0,55.627-39.927,132.818-42.869
							c52.562-2.004,97.087,38.747,98.94,91.315C2745.288,1213.315,2738.892,1282.674,2705.714,1360.179z"/>
					</g>
					<g style="opacity:0.3;">
						<path style="fill:#650000;" d="M2704.991,1197.682c-1.715-48.684-42.951-86.424-91.629-84.568
							c-32.346,1.233-60.578,9.48-81.824,18.139c-6.406-5.358-12.95-10.675-19.752-15.895c0,0,55.627-39.927,132.818-42.869
							c52.562-2.004,97.087,38.748,98.94,91.315c1.744,49.512-4.652,118.871-37.829,196.375c0,0-5.306-13.188-16.654-34.495
							C2703.212,1275.853,2706.19,1231.702,2704.991,1197.682z"/>
					</g>
					<g>
						<path style="fill:#650000;" d="M2705.718,1380.181c-0.076,0-0.151,0-0.229,0c-8.079-0.093-15.31-5.039-18.328-12.534
							c-0.64-1.582-55.774-135.288-187.551-236.426c-5.022-3.853-7.922-9.854-7.822-16.187c0.103-6.328,3.193-12.236,8.335-15.928
							c2.471-1.772,61.462-43.472,143.721-46.602c31.018-1.235,60.525,9.766,83.188,30.83
							c22.461,20.869,35.422,49.199,36.499,79.766c1.677,47.559-3.804,121.724-39.429,204.951
							C2720.95,1375.415,2713.713,1380.181,2705.718,1380.181z M2547.104,1118.135c80.845,68.325,130.61,144.858,156.089,191.426
							c18.54-58.726,21.602-109.873,20.361-145.054c-0.698-19.868-9.133-38.291-23.75-51.87
							c-14.824-13.774-34.146-20.981-54.436-20.161C2603.896,1094.053,2568.838,1107.446,2547.104,1118.135z"/>
					</g>
				</g>
				<g>
					<path style="fill:#650000;" d="M1617.473,3230.039c-12.607,0-25.088-0.264-37.439-0.791
						c-187.705-7.988-327.766-67.896-416.287-178.052c-131.868-164.102-115.491-393.276-93.994-515.283
						c4.529-25.693,11.902-52.671,22.544-82.476c20.371-57.056,21.924-125.42,21.624-152.72
						c-20.737-9.99-63.403-34.443-105.471-82.393c-52.188-59.478-113.674-168.315-110.229-349.063
						c3.45-181.23,83.491-294.941,150.029-358.423c51.04-48.691,101.487-75.791,127.708-87.856
						c-29.319-86.65-43.652-178.594-42.629-273.608c1.201-111.768,89.688-203.623,201.448-209.121
						c143.01-7.021,249.18,43.633,281.482,61.279c171.914-86.206,375.234-85.21,383.943-85.102
						c8.352-0.103,211.638-1.099,383.542,85.102c32.297-17.642,138.511-68.345,281.479-61.279
						c111.763,5.498,200.249,97.354,201.45,209.121c1.023,95.015-13.311,186.958-42.629,273.608
						c26.221,12.065,76.667,39.165,127.708,87.856c66.538,63.481,146.58,177.192,150.029,358.423
						c3.445,180.747-58.042,289.585-110.229,349.063c-42.068,47.949-84.734,72.402-105.471,82.393
						c-0.303,27.29,1.25,95.659,21.624,152.72c10.642,29.805,18.015,56.782,22.544,82.476
						c21.497,122.007,37.874,351.182-93.994,515.283c-88.521,110.156-228.582,170.063-416.289,178.052
						c-63.376,2.695-130.315-1.543-198.955-12.603c-53.196-8.574-134.724-18.789-221.008-18.789s-167.813,10.215-221.011,18.789
						C1723.728,3225.552,1669.561,3230.039,1617.473,3230.039z M1361.309,979.604c-8.064,0-16.24,0.19-24.568,0.601
						c-90.659,4.463-162.441,78.96-163.416,169.6c-1.042,96.772,14.614,190.117,46.531,277.437
						c1.833,5.01,1.584,10.552-0.688,15.381c-2.271,4.829-6.379,8.55-11.411,10.332c-0.632,0.229-67.08,24.507-133.145,88.022
						c-87.961,84.57-133.853,195.278-136.401,329.048c-2.512,131.895,31.648,242.612,98.789,320.181
						c50.662,58.53,102.925,78.32,103.447,78.516c7.471,2.764,12.651,9.717,13.093,17.671c0.225,4.043,5.173,99.99-23.572,180.493
						c-9.878,27.666-16.689,52.515-20.82,75.972c-16.362,92.852-40.754,325.815,85.781,483.281
						c80.981,100.776,211.123,155.669,386.807,163.149c60.698,2.598,124.912-1.499,190.889-12.134
						c54.644-8.804,138.445-19.297,227.375-19.297s172.732,10.493,227.373,19.297c65.979,10.635,130.21,14.731,190.889,12.134
						c175.686-7.48,305.828-62.373,386.809-163.149c126.536-157.466,102.144-390.43,85.781-483.281
						c-4.131-23.457-10.942-48.306-20.82-75.972c-28.745-80.503-23.796-176.45-23.572-180.493
						c0.444-8.003,5.62-14.966,13.154-17.695c0.461-0.171,52.725-19.961,103.386-78.491
						c67.141-77.568,101.301-188.286,98.789-320.181c-2.549-133.77-48.44-244.478-136.401-329.048
						c-66.064-63.516-132.512-87.793-133.176-88.032c-5.015-1.797-9.119-5.527-11.379-10.347
						c-2.258-4.824-2.517-10.356-0.688-15.356c31.917-87.319,47.573-180.664,46.531-277.437
						c-0.974-90.64-72.756-165.137-163.418-169.6c-155.918-7.671-267.278,60.361-268.384,61.05
						c-6.025,3.75-13.606,4.028-19.885,0.742c-165.059-86.66-372.676-85.62-374.788-85.566
						c-2.38,0.073-210.417-0.942-375.188,85.566c-6.294,3.306-13.877,3.018-19.91-0.757
						C1604.08,1040.601,1504.229,979.604,1361.309,979.604z"/>
				</g>
			</g>
			<g>
				<g>
					<path style="fill:#FFFFFF;" d="M1250.893,1966.072c-174.233,137.727,88.393,438.75,88.393,438.75l273.214-204.107
						C1612.5,2200.714,1419.643,1832.678,1250.893,1966.072z"/>
				</g>
				<g>
					<path style="fill:#650000;" d="M1335.195,2408.391c-19.933-10.487-34.435-25.784-47.419-42.147
						c-13.185-16.241-24.365-33.973-34.834-52.094c-10.43-18.145-20.91-36.283-30.465-55.015
						c-9.587-18.707-18.086-38.083-25.514-57.977c-7.463-19.873-13.5-40.497-17.358-61.813c-3.873-21.279-5.717-43.293-3.893-65.562
						c2.038-22.22,8.052-44.583,18.632-64.785l3.96-7.581c1.369-2.496,3.135-4.746,4.694-7.125l4.845-7.031l2.435-3.505l2.791-3.196
						l11.284-12.678l12.564-11.174c16.837-14.637,37.531-26.162,60.201-31.984c22.69-5.868,46.916-5.089,68.859,0.702
						c22.07,5.708,42.156,15.631,60.519,27.246c18.316,11.743,35.062,25.234,50.641,39.672
						c31.172,28.915,58.049,61.304,82.724,94.968c6.158,8.43,12.139,16.974,18.029,25.574c5.848,8.624,12.193,16.923,18.074,25.543
						c5.83,8.65,10.983,17.744,15.022,27.468c3.915,9.802,6.77,20.173,6.325,32.296c-0.126,3.45-3.026,6.144-6.476,6.018
						c-1.068-0.039-2.063-0.344-2.925-0.85l-0.217-0.128c-10.096-5.962-17.445-13.374-23.951-21.222
						c-6.387-7.924-11.979-16.288-17.129-24.946c-5.107-8.683-10.016-17.521-15.692-25.846
						c-5.636-8.351-11.451-16.571-17.371-24.702c-23.749-32.426-49.543-63.394-78.536-90.262
						c-14.474-13.424-29.81-25.715-46.016-36.106c-16.225-10.275-33.409-18.602-51.098-23.164
						c-17.664-4.628-35.735-5.06-52.804-0.676c-17.023,4.408-33.275,13.141-47.291,25.397
						c-29.109,23.572-46.434,57.649-49.641,94.927c-1.517,18.655,0.019,37.821,3.481,56.823
						c3.431,19.025,8.922,37.928,15.877,56.415c6.912,18.499,14.886,36.74,24.001,54.515c9.102,17.772,18.882,35.305,30.023,52.021
						c11.107,16.738,22.817,33.047,33.655,50.023c11.106,16.801,21.529,34.095,28.177,54.822l0.068,0.211
						c0.981,3.06-0.704,6.337-3.763,7.318C1338.138,2409.276,1336.525,2409.086,1335.195,2408.391z"/>
				</g>
				<g>
					<path style="fill:#650000;" d="M1233.671,2015.47c0.84,2.628,1.844,6.52,2.75,9.886l2.885,10.582
						c1.974,7.089,3.993,14.233,6.223,21.384c2.33,7.1,4.514,14.373,7.058,21.642c2.261,7.46,5.025,14.747,7.153,22.975l0.049,0.188
						c0.568,2.198-0.753,4.441-2.951,5.01c-1.115,0.288-2.253,0.083-3.167-0.469c-7.435-4.526-13.981-10.217-19.735-16.554
						c-5.737-6.359-10.831-13.308-15.092-20.723c-4.418-7.345-8.123-15.112-11.091-23.182c-1.547-4.015-2.764-8.163-3.887-12.354
						c-1.055-4.359-1.901-8.231-2.399-13.464c-0.851-8.947,5.71-16.89,14.657-17.74c7.761-0.74,14.767,4.1,17.043,11.237
						L1233.671,2015.47z"/>
				</g>
				<g>
					<path style="fill:#650000;" d="M1325.493,1952.554c0.84,2.628,1.844,6.52,2.75,9.886l2.885,10.582
						c1.974,7.089,3.993,14.233,6.223,21.384c2.33,7.1,4.514,14.373,7.058,21.642c2.261,7.46,5.025,14.747,7.153,22.975l0.049,0.188
						c0.568,2.198-0.753,4.441-2.951,5.01c-1.115,0.288-2.253,0.084-3.167-0.469c-7.434-4.525-13.981-10.216-19.734-16.554
						c-5.737-6.359-10.831-13.308-15.092-20.723c-4.418-7.345-8.123-15.112-11.091-23.182c-1.547-4.015-2.764-8.163-3.887-12.354
						c-1.055-4.359-1.9-8.231-2.398-13.464c-0.852-8.947,5.71-16.89,14.657-17.74c7.761-0.74,14.766,4.1,17.043,11.237
						L1325.493,1952.554z"/>
				</g>
			</g>
			<g>
				<g>
					<path style="fill:#FFFFFF;" d="M2749.107,1966.072c174.233,137.727-88.393,438.75-88.393,438.75L2387.5,2200.714
						C2387.5,2200.714,2580.357,1832.678,2749.107,1966.072z"/>
				</g>
				<g>
					<path style="fill:#650000;" d="M2656.624,2401.252c6.648-20.726,17.07-38.021,28.176-54.822
						c10.839-16.976,22.549-33.285,33.655-50.023c11.141-16.716,20.922-34.249,30.023-52.021
						c9.116-17.776,17.09-36.017,24.001-54.515c6.956-18.486,12.446-37.39,15.878-56.415c3.462-19.001,4.998-38.168,3.481-56.823
						c-3.207-37.278-20.532-71.355-49.641-94.927c-14.016-12.256-30.267-20.989-47.29-25.397
						c-17.069-4.384-35.14-3.951-52.804,0.676c-17.689,4.562-34.873,12.889-51.099,23.164
						c-16.205,10.391-31.542,22.682-46.016,36.106c-28.993,26.869-54.788,57.837-78.536,90.262
						c-5.919,8.131-11.735,16.351-17.372,24.702c-5.676,8.325-10.585,17.163-15.691,25.846c-5.15,8.658-10.743,17.023-17.13,24.946
						c-6.505,7.848-13.854,15.26-23.95,21.222l-0.193,0.114c-2.974,1.755-6.807,0.768-8.562-2.205
						c-0.543-0.92-0.824-1.952-0.864-2.949c-0.444-12.123,2.411-22.494,6.326-32.296c4.039-9.724,9.192-18.818,15.022-27.468
						c5.88-8.621,12.225-16.919,18.074-25.543c5.889-8.6,11.871-17.144,18.029-25.574c24.675-33.665,51.552-66.053,82.725-94.968
						c15.579-14.437,32.325-27.928,50.641-39.672c18.364-11.615,38.45-21.538,60.519-27.246c21.943-5.791,46.169-6.57,68.86-0.702
						c22.671,5.822,43.364,17.346,60.201,31.984l12.563,11.174l11.283,12.678l2.792,3.196l2.435,3.505l4.844,7.031
						c1.559,2.379,3.325,4.629,4.694,7.125l3.96,7.581c10.58,20.203,16.594,42.565,18.633,64.785
						c1.824,22.268-0.021,44.282-3.894,65.562c-3.857,21.316-9.894,41.94-17.358,61.813c-7.428,19.894-15.925,39.27-25.514,57.977
						c-9.554,18.732-20.034,36.87-30.465,55.015c-10.468,18.12-21.648,35.852-34.834,52.094
						c-12.985,16.364-27.485,31.66-47.418,42.147c-2.844,1.497-6.364,0.403-7.86-2.44c-0.753-1.434-0.85-3.04-0.396-4.47
						L2656.624,2401.252z"/>
				</g>
				<g>
					<path style="fill:#650000;" d="M2798.53,2020.392c-0.498,5.233-1.343,9.105-2.397,13.464
						c-1.123,4.191-2.341,8.339-3.887,12.354c-2.969,8.07-6.674,15.837-11.091,23.182c-4.261,7.415-9.354,14.364-15.092,20.723
						c-5.754,6.337-12.301,12.028-19.735,16.554c-1.938,1.18-4.468,0.565-5.649-1.373c-0.598-0.984-0.735-2.12-0.471-3.154
						l0.052-0.201c2.126-8.228,4.891-15.515,7.152-22.975c2.544-7.269,4.728-14.542,7.058-21.642
						c2.23-7.151,4.249-14.296,6.223-21.384l2.886-10.582c0.906-3.367,1.909-7.258,2.75-9.886l0.502-1.572
						c2.736-8.561,11.892-13.284,20.453-10.548C2794.711,2005.723,2799.244,2012.936,2798.53,2020.392z"/>
				</g>
				<g>
					<path style="fill:#650000;" d="M2706.71,1957.476c-0.499,5.233-1.344,9.105-2.399,13.464
						c-1.123,4.191-2.341,8.339-3.887,12.354c-2.969,8.07-6.674,15.837-11.091,23.182c-4.261,7.415-9.354,14.364-15.092,20.723
						c-5.754,6.338-12.301,12.029-19.735,16.554c-1.938,1.18-4.468,0.565-5.648-1.373c-0.599-0.984-0.736-2.12-0.472-3.154
						l0.052-0.201c2.128-8.228,4.891-15.515,7.152-22.975c2.544-7.269,4.728-14.542,7.058-21.642
						c2.23-7.151,4.249-14.296,6.223-21.384l2.886-10.582c0.906-3.367,1.91-7.258,2.75-9.886l0.502-1.572
						c2.736-8.561,11.892-13.284,20.453-10.548C2702.889,1942.806,2707.423,1950.02,2706.71,1957.476z"/>
				</g>
			</g>
		</g>
	</g>
</g>
</svg>
