<svg xmlns="http://www.w3.org/2000/svg" viewBox="0 0 64 64" id="mining"><path fill="#f15743" d="m48.267 19.73.471-.472a.5.5 0 0 0 0-.707l1.414-1.415a1 1 0 0 0 0-1.414l-2.828-2.828a.999.999 0 0 0-1.414 0l-1.415 1.414a.5.5 0 0 0-.354-.141.5.5 0 0 0-.354.141l-.471.472a24.759 24.759 0 0 0-13.227-4.946.5.5 0 1 0-.287.931 62.756 62.756 0 0 1 10.137 7.393l-.394.395a.5.5 0 0 0 0 .708l-8.89 8.89a.999.999 0 1 0 1.414 1.414l8.89-8.89 1.414 1.414-8.89 8.89a.999.999 0 1 0 1.414 1.414l8.89-8.89a.498.498 0 0 0 .708 0l.394-.394a62.743 62.743 0 0 1 7.393 10.136.5.5 0 0 0 .931-.286 24.767 24.767 0 0 0-4.946-13.229zm-2.358-4.007.708-.707 1.414 1.414-.707.708-1.415-1.415zm-13.646-4.629a23.752 23.752 0 0 1 10.331 4.409l-1.952 1.952a64.02 64.02 0 0 0-8.379-6.361zM44.142 22.44l-.353-.353-3.182-3.182 3.104-3.104.004-.003.427-.429 3.182 3.182.353.353-3.535 3.536zm1.449-.035 1.953-1.953a23.757 23.757 0 0 1 4.408 10.331 63.946 63.946 0 0 0-6.361-8.378zM30.656 33.806 14.09 50.371a.999.999 0 1 1-1.414-1.414l16.566-16.566a.999.999 0 1 0-1.414-1.414L11.261 47.543a3.006 3.006 0 0 0 0 4.242 2.99 2.99 0 0 0 2.122.877 2.99 2.99 0 0 0 2.121-.877L32.07 35.22a.999.999 0 1 0-1.414-1.414z"></path><path fill="#2c4355" d="M48.118 46.61a.997.997 0 0 1-.707-.293L27.086 25.993a.999.999 0 1 1 1.414-1.414l20.324 20.324a.999.999 0 0 1-.706 1.707zm-2.829 2.828a.997.997 0 0 1-.707-.293L24.258 28.822a.999.999 0 1 1 1.414-1.414l20.324 20.323a.999.999 0 0 1-.707 1.707z"></path><path fill="#2c4355" d="M23.197 29.676a.499.499 0 0 1-.437-.257l-3.536-6.364a.503.503 0 0 1 .083-.597l2.829-2.828a.5.5 0 0 1 .596-.084l6.364 3.535a.499.499 0 0 1 .11.791l-5.657 5.657a.49.49 0 0 1-.352.147zm-2.915-6.778 3.031 5.455 4.719-4.72-5.455-3.03-2.295 2.295z"></path><circle cx="24.965" cy="23.872" r=".5" fill="#2c4355" transform="rotate(-45.001 24.965 23.873)"></circle><circle cx="23.551" cy="25.286" r=".5" fill="#2c4355" transform="rotate(-45.001 23.55 25.287)"></circle><path fill="#2c4355" d="M18.248 30.883a.997.997 0 0 1-.707-.293l-5.35-5.351a8.944 8.944 0 0 1-2.405-8.387l1.124-4.872a1 1 0 0 1 .75-.75l4.872-1.124a8.947 8.947 0 0 1 8.387 2.405l5.35 5.351a.997.997 0 0 1 0 1.414l-3.064 3.063a.999.999 0 1 1-1.414-1.414l2.357-2.356-4.643-4.644a6.949 6.949 0 0 0-6.523-1.87l-4.263.983-.983 4.263a6.953 6.953 0 0 0 1.871 6.523l4.643 4.644 2.121-2.121a.999.999 0 1 1 1.414 1.414l-2.828 2.828c-.19.188-.444.294-.709.294zm30.576 22.884c-.64 0-1.28-.244-1.768-.731l-1.414-1.414a.5.5 0 0 1 0-.707l4.95-4.95a.514.514 0 0 1 .707 0l1.414 1.414a2.503 2.503 0 0 1 0 3.536l-2.121 2.121a2.496 2.496 0 0 1-1.768.731zm-2.121-2.499 1.061 1.061a1.504 1.504 0 0 0 2.122 0l2.121-2.121a1.502 1.502 0 0 0 0-2.122l-1.061-1.061-4.243 4.243z"></path><path fill="#2c4355" d="M47.41 53.182a.502.502 0 0 1-.354-.146l-2.828-2.828a.5.5 0 0 1 0-.707l4.95-4.95a.514.514 0 0 1 .707 0l2.828 2.828a.5.5 0 0 1-.707.707l-2.475-2.475-4.243 4.243 2.475 2.475a.5.5 0 0 1-.353.853z"></path></svg>