<svg xmlns="http://www.w3.org/2000/svg" viewBox="0 0 48 48" id="wallet"><path d="M31,25v4a3.009,3.009,0,0,0,3,3h7v9a1,1,0,0,1-1,1H20.47A10.982,10.982,0,0,0,5,26.54V12.97A4.924,4.924,0,0,0,8,14H41v8H34A3.009,3.009,0,0,0,31,25Z"></path><path d="M12 26a9 9 0 1 0 9 9A9.014 9.014 0 0 0 12 26zM7 36H5V34H7zm9-3H14V32H10v2h4a2.006 2.006 0 0 1 2 2v2a2.006 2.006 0 0 1-2 2H13v2H11V40H10a2.006 2.006 0 0 1-2-2V37h2v1h4V36H10a2.006 2.006 0 0 1-2-2V32a2.006 2.006 0 0 1 2-2h1V28h2v2h1a2.006 2.006 0 0 1 2 2zm1 3V34h2v2zM44 24H34a1 1 0 0 0-1 1v4a1 1 0 0 0 1 1H44a1 1 0 0 0 1-1V25A1 1 0 0 0 44 24zm-7 4H35V26h2zM8 6a3 3 0 0 0 0 6H41V6zm32 4H7V8H40z"></path></svg>